<?xml version="1.0" encoding="utf-8"?>
<!-- Generator: Adobe Illustrator 22.0.0, SVG Export Plug-In . SVG Version: 6.00 Build 0)  -->
<svg version="1.1" id="Layer_1" xmlns="http://www.w3.org/2000/svg" xmlns:xlink="http://www.w3.org/1999/xlink" x="0px" y="0px"
	 viewBox="0 0 501 138.9" style="enable-background:new 0 0 501 138.9;" xml:space="preserve">
<style type="text/css">
	.st0{fill:#FFFFFF;}
</style>
<path class="st0" d="M1.6,138.9v-17.3h56.8v-16.5H15.9c-5.4,0-9.4-1.7-12-5C1.3,96.9,0,92.8,0,87.9V46.7c0-5,1.3-9.2,3.8-12.5
	c2.6-3.3,6.6-5,12-5h43.8c4.7,0,8.5,1.4,11.4,4.2c2.9,2.8,4.4,7.2,4.4,13.2v74.9H58.4c0,5-1.3,9.1-4,12.4c-2.7,3.3-6.7,4.9-12.2,4.9
	H1.6z M17.1,87.7h41.3v-41H17.1V87.7z M103.9,29.5v66.7h38.1V29.5h17.1v66.7h-17c0,5.9-1.4,10.2-4.3,13c-2.9,2.8-6.7,4.2-11.4,4.2
	h-23.8c-5.4,0-9.4-1.7-12-5c-2.6-3.3-3.8-7.4-3.8-12.3V29.5H103.9z M187.2,29.6h42.6c5.1,0.4,8.9,2.1,11.4,5
	c2.5,2.9,3.7,6.6,3.7,11.1V64c0,5.4-1.6,9.5-4.8,12.1c-3.2,2.6-7.3,3.9-12.2,3.9h-40.5v16.2h50.4v17.3h-34.6c-5.4,0-9.5-1.7-12.2-5
	c-2.7-3.3-4.1-7.4-4.1-12.3h-16.6V45.6c0-5.4,1.6-9.5,4.8-12.1C178.3,30.9,182.3,29.6,187.2,29.6z M187.4,62.7h40.5V46.9h-40.5V62.7
	z M256,46.7c0-5,1.3-9.1,4-12.4c2.7-3.3,6.7-4.9,12.2-4.9h53.6v17.3h-52.6v16.3H312c5.4,0,9.5,1.6,12.2,4.9c2.7,3.3,4,7.4,4,12.4
	v15.8c0,4.9-1.3,9-4,12.3c-2.7,3.3-6.7,5-12.2,5h-53.8V96.2h53V80.3h-38.1V63.1H256V46.7z M355.5,113.5c-5.4,0-9.5-1.7-12.2-5
	c-2.7-3.3-4-7.5-4-12.5V0h17.1v29.6H380v17.3h-23.5V96h30.9v17.4H355.5z M398.6,1.9h17.1v111.5h-17.1V1.9z M444,29.5v58.9h39.8V29.6
	H501v92h-17c-0.1,5-1.5,9.1-4.2,12.4c-2.7,3.3-6.7,4.9-12.2,4.9h-40.5v-17.3h56.6v-16h-41.1c-5.4,0-9.4-1.7-12-5
	c-2.6-3.3-3.8-7.4-3.8-12.3V29.5H444z"/>
</svg>
