<?xml version="1.0" standalone="no"?>
<!DOCTYPE svg PUBLIC "-//W3C//DTD SVG 20010904//EN"
 "http://www.w3.org/TR/2001/REC-SVG-20010904/DTD/svg10.dtd">
<svg version="1.0" xmlns="http://www.w3.org/2000/svg"
 width="1024.000000pt" height="256.000000pt" viewBox="0 0 1024.000000 256.000000"
 preserveAspectRatio="xMidYMid meet">
<metadata>
Created by potrace 1.16, written by Peter Selinger 2001-2019
</metadata>
<g transform="translate(0.000000,256.000000) scale(0.048902,-0.029907)"
fill="#000000" stroke="none">
<path d="M13810 4928 c0 -1117 4 -1942 10 -1998 19 -188 73 -320 177 -430 64
-68 120 -105 220 -143 58 -22 64 -22 781 -25 l722 -3 0 346 0 345 -610 0 -610
0 0 975 0 975 465 0 465 0 0 340 0 340 -465 0 -465 0 0 590 0 590 -345 0 -345
0 0 -1902z"/>
<path d="M16150 5750 l0 -1080 330 0 330 0 0 -1170 0 -1170 345 0 345 0 0
1175 0 1175 -330 0 -330 0 0 1075 0 1075 -345 0 -345 0 0 -1080z"/>
<path d="M800 5641 c-191 -51 -323 -188 -389 -405 -38 -124 -42 -256 -38
-1166 3 -853 4 -866 25 -949 47 -178 153 -328 279 -394 134 -69 98 -67 1106
-67 l907 0 0 -330 0 -330 -1125 0 -1125 0 0 -340 0 -340 868 0 c715 0 879 3
935 15 159 34 287 132 364 281 47 90 83 220 83 301 0 90 -30 83 346 83 l334 0
-2 1583 c-3 1765 3 1614 -73 1776 -46 97 -135 185 -237 235 -142 69 -84 66
-1193 65 -923 0 -1005 -2 -1065 -18z m1890 -1481 l0 -810 -815 0 -815 0 0 810
0 810 815 0 815 0 0 -810z"/>
<path d="M3813 4263 l3 -1388 22 -85 c49 -183 149 -325 280 -393 126 -66 130
-67 793 -67 561 0 600 1 673 20 258 66 404 259 425 560 l6 95 338 3 337 2 0
1320 0 1320 -345 0 -345 0 0 -1320 0 -1320 -750 0 -750 0 0 1320 0 1320 -345
0 -346 0 4 -1387z"/>
<path d="M7570 5629 c-110 -28 -211 -82 -284 -149 -73 -69 -117 -145 -148
-257 -22 -78 -22 -82 -26 -1145 l-3 -1068 330 0 329 0 7 -72 c16 -181 77 -328
180 -437 75 -79 150 -123 261 -151 74 -19 113 -20 831 -20 l753 0 0 340 0 340
-1000 0 -1000 0 0 320 0 319 893 3 892 3 70 23 c109 37 184 81 256 152 75 74
112 139 140 248 17 69 19 113 19 561 0 542 -3 567 -65 698 -72 148 -201 248
-379 293 -77 19 -110 20 -1030 19 -908 0 -954 -1 -1026 -20z m1820 -979 l0
-320 -795 0 -795 0 0 320 0 320 795 0 795 0 0 -320z"/>
<path d="M11005 5644 c-250 -52 -397 -197 -466 -459 -20 -73 -22 -112 -26
-472 l-5 -393 341 0 341 0 0 -340 0 -340 755 0 755 0 0 -315 0 -315 -1050 0
-1050 0 0 -340 0 -340 1133 0 c1241 0 1193 -2 1321 60 165 79 282 260 316 487
8 47 10 220 8 495 -4 397 -5 428 -26 501 -32 116 -86 212 -162 287 -77 77
-140 113 -246 140 -74 19 -113 20 -911 20 l-833 0 0 325 0 325 1040 0 1040 0
0 340 0 340 -1127 -1 c-621 -1 -1137 -3 -1148 -5z"/>
<path d="M17933 4418 l3 -1233 22 -84 c48 -179 153 -328 280 -394 130 -68 101
-67 1075 -67 l877 0 0 -320 0 -320 -1120 0 -1120 0 0 -340 0 -340 868 0 c833
0 872 1 946 20 106 27 169 63 247 141 108 108 174 263 186 437 l6 82 338 0
339 0 0 1825 0 1825 -345 0 -345 0 0 -1165 0 -1165 -785 0 -785 0 0 1165 0
1165 -345 0 -346 0 4 -1232z"/>
</g>
</svg>
